<svg xmlns="http://www.w3.org/2000/svg" viewBox="0 0 126 126"><defs><style>.cls-1{fill:none;stroke:#fff;stroke-miterlimit:10;stroke-width:2px;}.cls-2{fill:#fff;}</style></defs><title>Asset 14</title><g id="Layer_2" data-name="Layer 2"><g id="Layer_2-2" data-name="Layer 2"><circle class="cls-1" cx="63" cy="63" r="62"/><path class="cls-2" d="M78.08,28.67H47.65A4.62,4.62,0,0,0,43,33.28v59a4.63,4.63,0,0,0,4.61,4.62H78.08a4.62,4.62,0,0,0,4.61-4.61v-59A4.62,4.62,0,0,0,78.08,28.67ZM58,32h9.73a.56.56,0,1,1,0,1.12H58A.56.56,0,1,1,58,32Zm4.87,62.63a2.31,2.31,0,1,1,2.3-2.31A2.3,2.3,0,0,1,62.87,94.62Zm16.61-6.23H46.25V36H79.48Z"/></g></g></svg>