<svg xmlns="http://www.w3.org/2000/svg" viewBox="0 0 126 126"><defs><style>.cls-1{fill:none;stroke:#fff;stroke-miterlimit:10;stroke-width:2px;}.cls-2{fill:#fff;}</style></defs><title>Asset 12</title><g id="Layer_2" data-name="Layer 2"><g id="Layer_2-2" data-name="Layer 2"><circle class="cls-1" cx="63" cy="63" r="62"/><path class="cls-2" d="M93.06,35.34H32.65a6.45,6.45,0,0,0-6.44,6.44v43a6.45,6.45,0,0,0,6.44,6.44H93.06a6.45,6.45,0,0,0,6.44-6.44V41.78A6.46,6.46,0,0,0,93.06,35.34Zm-.89,4.3L63,68.82,33.56,39.64ZM30.5,83.84V42.65L51.18,63.16Zm3,3,20.69-20.7,7.26,7.19a2.15,2.15,0,0,0,3,0l7.07-7.07L92.17,86.88Zm61.67-3L74.62,63.26,95.21,42.67Z"/></g></g></svg>