<svg xmlns="http://www.w3.org/2000/svg" viewBox="0 0 126 126"><defs><style>.cls-1{fill:none;stroke:#fff;stroke-miterlimit:10;stroke-width:2px;}.cls-2{fill:#fff;}</style></defs><title>Asset 15</title><g id="Layer_2" data-name="Layer 2"><g id="Layer_2-2" data-name="Layer 2"><circle class="cls-1" cx="63" cy="63" r="62"/><path class="cls-2" d="M78.78,30.94H69.66c-10.24,0-16.86,6.79-16.86,17.3v8H43.64a1.43,1.43,0,0,0-1.44,1.43V69.2a1.43,1.43,0,0,0,1.44,1.43H52.8V99.8a1.43,1.43,0,0,0,1.44,1.43h12a1.43,1.43,0,0,0,1.43-1.43V70.63H78.35a1.43,1.43,0,0,0,1.43-1.43V57.64a1.47,1.47,0,0,0-.42-1,1.45,1.45,0,0,0-1-.42H67.63V49.44c0-3.25.77-4.9,5-4.9h6.14a1.43,1.43,0,0,0,1.43-1.43V32.38A1.43,1.43,0,0,0,78.78,30.94Z"/></g></g></svg>