<svg xmlns="http://www.w3.org/2000/svg" viewBox="0 0 124 124"><defs><style>.cls-1{fill:#1b3247;}.cls-2{fill:#fff;}</style></defs><title>email</title><g id="Layer_2" data-name="Layer 2"><g id="Layer_2-2" data-name="Layer 2"><circle class="cls-1" cx="62" cy="62" r="62"/><path class="cls-2" d="M92.06,34.34H31.65a6.45,6.45,0,0,0-6.44,6.44v43a6.45,6.45,0,0,0,6.44,6.44H92.06a6.45,6.45,0,0,0,6.44-6.44V40.78A6.46,6.46,0,0,0,92.06,34.34Zm-.89,4.3L62,67.82,32.56,38.64ZM29.5,82.84V41.65L50.18,62.16Zm3,3,20.69-20.7,7.26,7.19a2.15,2.15,0,0,0,3,0l7.07-7.07L91.17,85.88Zm61.67-3L73.62,62.26,94.21,41.67Z"/></g></g></svg>