<svg xmlns="http://www.w3.org/2000/svg" viewBox="0 0 124 124"><defs><style>.cls-1{fill:#1b3247;}.cls-2{fill:#fff;}</style></defs><title>facebook</title><g id="Layer_2" data-name="Layer 2"><g id="Layer_2-2" data-name="Layer 2"><circle class="cls-1" cx="62" cy="62" r="62"/><path class="cls-2" d="M77.78,29.94H68.66c-10.24,0-16.86,6.79-16.86,17.3v8H42.64a1.43,1.43,0,0,0-1.44,1.43V68.2a1.43,1.43,0,0,0,1.44,1.43H51.8V98.8a1.43,1.43,0,0,0,1.44,1.43h12a1.43,1.43,0,0,0,1.43-1.43V69.63H77.35a1.43,1.43,0,0,0,1.43-1.43V56.64a1.47,1.47,0,0,0-.42-1,1.45,1.45,0,0,0-1-.42H66.63V48.44c0-3.25.77-4.9,5-4.9h6.14a1.43,1.43,0,0,0,1.43-1.43V31.38A1.43,1.43,0,0,0,77.78,29.94Z"/></g></g></svg>