<svg xmlns="http://www.w3.org/2000/svg" viewBox="0 0 212.23 124"><defs><style>.cls-1{fill:#f27080;}.cls-2{fill:#fff;}</style></defs><title>PB_logo</title><g id="Layer_2" data-name="Layer 2"><g id="Layer_2-2" data-name="Layer 2"><rect class="cls-1" width="212.23" height="124" rx="62"/><path class="cls-2" d="M69.25,25a52.51,52.51,0,0,0,0,74,52.14,52.14,0,0,0,89-37,52.09,52.09,0,0,0-89-37Zm23.37-9a17.73,17.73,0,0,0,11.32,29v8.19L84.69,40.4,62.84,54.87h-4A48.07,48.07,0,0,1,92.62,16Zm13.5-2A13.35,13.35,0,1,1,92.83,27.37,13.33,13.33,0,0,1,106.12,14ZM70.75,54.87l13.94-9.24,13.94,9.24ZM58.34,62c0-.93,0-1.85.08-2.76h45.52V78.63L83,104A48,48,0,0,1,58.34,62ZM87,106l19.09-23L125.19,106A47.54,47.54,0,0,1,87,106Zm42.23-2L108.29,78.76V59.24h45.53c.05.91.08,1.83.08,2.76A48,48,0,0,1,129.2,104Zm24.17-49.13H108.29V45a17.74,17.74,0,0,0,11.33-29A48.06,48.06,0,0,1,153.37,54.87Z"/></g></g></svg>