<svg xmlns="http://www.w3.org/2000/svg" viewBox="0 0 124 124"><defs><style>.cls-1{fill:#1b3247;}.cls-2{fill:#fff;}</style></defs><title>phone</title><g id="Layer_2" data-name="Layer 2"><g id="Layer_2-2" data-name="Layer 2"><circle class="cls-1" cx="62" cy="62" r="62"/><path class="cls-2" d="M77.08,27.67H46.65A4.62,4.62,0,0,0,42,32.28v59a4.63,4.63,0,0,0,4.61,4.62H77.08a4.62,4.62,0,0,0,4.61-4.61v-59A4.62,4.62,0,0,0,77.08,27.67ZM57,31h9.73a.56.56,0,0,1,0,1.12H57A.56.56,0,0,1,57,31Zm4.87,62.63a2.31,2.31,0,1,1,2.3-2.31A2.3,2.3,0,0,1,61.87,93.62Zm16.61-6.23H45.25V35H78.48Z"/></g></g></svg>