<svg xmlns="http://www.w3.org/2000/svg" viewBox="0 0 114.56 96.94"><defs><style>.cls-1{fill:#676c76;}</style></defs><title>quote</title><g id="Layer_2" data-name="Layer 2"><g id="Layer_2-2" data-name="Layer 2"><path class="cls-1" d="M74.91,96.94h26.44a13.16,13.16,0,0,0,13.21-13.22V57.28a13.16,13.16,0,0,0-13.21-13.22H85.92a6.57,6.57,0,0,1-6.61-6.61v-2.2a17,17,0,0,1,5.17-12.46,17,17,0,0,1,12.46-5.16h4.41a4.23,4.23,0,0,0,3.09-1.31,4.21,4.21,0,0,0,1.31-3.1V4.41a4.21,4.21,0,0,0-1.31-3.1A4.23,4.23,0,0,0,101.35,0H96.94A34.36,34.36,0,0,0,83.27,2.79a34.93,34.93,0,0,0-18.79,18.8,34.27,34.27,0,0,0-2.79,13.66V83.72A13.16,13.16,0,0,0,74.91,96.94Z"/><path class="cls-1" d="M3.86,93.08a12.75,12.75,0,0,0,9.36,3.86H39.66A13.18,13.18,0,0,0,52.88,83.72V57.28A13.18,13.18,0,0,0,39.66,44.06H24.24a6.57,6.57,0,0,1-6.62-6.61v-2.2a17,17,0,0,1,5.17-12.46,17,17,0,0,1,12.46-5.16h4.41a4.46,4.46,0,0,0,4.4-4.41V4.41a4.24,4.24,0,0,0-1.3-3.1A4.27,4.27,0,0,0,39.66,0H35.25A34.36,34.36,0,0,0,21.58,2.79,34.93,34.93,0,0,0,2.79,21.59,34.27,34.27,0,0,0,0,35.25V83.72A12.71,12.71,0,0,0,3.86,93.08Z"/></g></g></svg>